<svg xmlns="http://www.w3.org/2000/svg" width="512" height="512" viewBox="0 0 512 512" version="1.1"><path d="M 344.500 155.321 L 252.500 208.529 252.882 360.014 C 253.092 443.331, 253.394 511.652, 253.553 511.838 C 253.713 512.024, 255.116 511.331, 256.671 510.298 C 258.227 509.265, 260.400 507.894, 261.500 507.251 C 262.600 506.607, 266.415 504.375, 269.977 502.291 C 273.539 500.206, 277.692 497.825, 279.206 497 C 281.694 495.644, 303.360 483.185, 307 481.018 C 307.825 480.527, 313.675 477.152, 320 473.518 C 326.325 469.884, 332.175 466.510, 333 466.019 C 340.111 461.791, 349.779 456.207, 351 455.622 C 351.825 455.228, 354.143 453.914, 356.152 452.702 C 362.030 449.157, 373.224 442.625, 376.206 441 C 378.763 439.606, 400.636 427.026, 404 425.014 C 411.702 420.408, 424.276 413.164, 427.954 411.214 C 430.454 409.888, 433.625 408.142, 435 407.334 L 437.500 405.864 437.153 330.182 C 436.962 288.557, 436.694 254.382, 436.557 254.238 C 436.421 254.094, 430.805 257.171, 424.077 261.077 C 417.349 264.982, 411.715 268.025, 411.558 267.839 C 411.400 267.653, 410.972 261.200, 410.606 253.500 L 409.942 239.500 418.721 234.450 C 423.550 231.673, 429.637 228.298, 432.250 226.952 L 437 224.503 437 163.252 C 437 129.563, 436.887 102.025, 436.750 102.056 C 436.613 102.088, 395.100 126.057, 344.500 155.321 M 344 216.440 L 331.500 223.798 331.167 230.649 C 330.984 234.417, 331.145 247.914, 331.526 260.642 L 332.217 283.784 340.359 279.123 C 344.836 276.560, 350.637 273.347, 353.250 271.983 L 358 269.503 358 239.252 C 358 222.613, 357.663 209.019, 357.250 209.041 C 356.837 209.064, 350.875 212.393, 344 216.440 M 344.500 337.609 C 337.350 341.778, 331.455 345.259, 331.400 345.345 C 331.345 345.430, 331.570 358.853, 331.900 375.174 L 332.500 404.848 345.250 397.791 L 358 390.733 358 360.367 C 358 343.665, 357.887 330.006, 357.750 330.014 C 357.613 330.022, 351.650 333.439, 344.500 337.609" stroke="none" fill="#fbca3b" fill-rule="evenodd"/><path d="M 166.500 53.030 L 74.500 106.142 74.790 257.321 C 75.014 373.983, 75.357 408.757, 76.290 409.624 C 77.827 411.052, 251.702 512, 252.625 512 C 253.002 512, 253.128 443.718, 252.905 360.262 L 252.500 208.525 344.237 155.550 C 394.693 126.413, 435.643 102.262, 435.237 101.879 C 433.897 100.615, 261.531 0.709, 260 0.309 C 259.175 0.094, 217.100 23.818, 166.500 53.030 M 344 216.440 L 331.500 223.798 331.167 230.649 C 330.984 234.417, 331.145 247.914, 331.526 260.642 L 332.217 283.784 340.359 279.123 C 344.836 276.560, 350.637 273.347, 353.250 271.983 L 358 269.503 358 239.252 C 358 222.613, 357.663 209.019, 357.250 209.041 C 356.837 209.064, 350.875 212.393, 344 216.440 M 410.591 253.250 C 410.965 261.087, 411.397 267.650, 411.551 267.832 C 411.705 268.015, 417.476 264.902, 424.375 260.914 L 436.919 253.664 424.209 246.341 C 417.219 242.313, 411.143 239.013, 410.706 239.009 C 410.269 239.004, 410.218 245.412, 410.591 253.250 M 344.500 337.609 C 337.350 341.778, 331.455 345.259, 331.400 345.345 C 331.345 345.430, 331.570 358.853, 331.900 375.174 L 332.500 404.848 345.250 397.791 L 358 390.733 358 360.367 C 358 343.665, 357.887 330.006, 357.750 330.014 C 357.613 330.022, 351.650 333.439, 344.500 337.609" stroke="none" fill="#d16204" fill-rule="evenodd"/></svg>