<?xml version="1.0" standalone="no"?>
<!DOCTYPE svg PUBLIC "-//W3C//DTD SVG 20010904//EN"
 "http://www.w3.org/TR/2001/REC-SVG-20010904/DTD/svg10.dtd">
<svg version="1.0" xmlns="http://www.w3.org/2000/svg"
 width="16.000000pt" height="16.000000pt" viewBox="0 0 16.000000 16.000000"
 preserveAspectRatio="xMidYMid meet">

<g transform="translate(0.000000,16.000000) scale(0.100000,-0.100000)"
fill="#000000" stroke="none">
<path d="M43 148 c-55 -27 -50 -114 8 -138 89 -37 151 99 63 139 -30 13 -42
13 -71 -1z m72 -43 c1 -11 4 -25 8 -32 10 -16 -2 -43 -22 -44 -18 -1 -55 2
-58 5 -1 1 2 19 8 39 10 37 24 48 32 25 2 -7 8 -10 12 -6 14 13 -7 30 -32 23
-17 -4 -22 -2 -18 5 4 6 21 10 38 8 24 -2 32 -8 32 -23z"/>
<path d="M70 60 c0 -13 5 -20 13 -17 16 5 16 29 0 35 -8 2 -13 -5 -13 -18z"/>
</g>
</svg>
